<?xml version="1.0" encoding="UTF-8" standalone="no"?>
<!DOCTYPE svg PUBLIC "-//W3C//DTD SVG 1.1//EN" "http://www.w3.org/Graphics/SVG/1.1/DTD/svg11.dtd">
<svg width="100%" height="100%" viewBox="0 0 1184 586" version="1.1" xmlns="http://www.w3.org/2000/svg" xmlns:xlink="http://www.w3.org/1999/xlink" xml:space="preserve" xmlns:serif="http://www.serif.com/" style="fill-rule:evenodd;clip-rule:evenodd;stroke-linejoin:round;stroke-miterlimit:2;">
    <g transform="matrix(1.5625,0,0,1.5625,-262,-480)">
        <path d="M603.475,428.485C598.476,434.269 582.152,446.658 581.358,447.321C565.808,460.304 565.625,460.041 559.794,464.865C540.19,481.08 540.019,480.865 538.331,482.294C526.726,492.124 525.19,492.562 521.33,496.23C519.392,497.951 519.076,497.896 517.364,499.338C512.017,503.841 505.701,508.907 504.678,509.728C490.306,521.255 486.202,524.878 482.189,528.112C470.431,537.585 470.431,537.563 469.415,538.393C454.263,550.77 430.929,556.68 407.475,547.558C394.179,542.386 383.361,532.951 377.259,523.648C363.218,502.242 367.342,482.278 369.167,475.411C372.641,462.334 381.197,453.271 382.697,451.682C388.296,445.751 396.538,439.959 402.7,434.74C410.34,428.269 410.512,428.51 418.272,422.209C429.975,412.705 431.035,411.933 432.186,411.093C433.912,409.834 436.518,407.31 447.12,399.004C455.26,392.628 455.122,392.466 455.838,391.923C461.091,387.944 460.947,387.811 464.721,384.784C480.542,372.098 480.392,371.952 481.809,370.907C491.757,363.57 517.934,341.336 523.452,338.416C537.441,331.015 549.411,330.441 560.539,331.115C565.71,331.428 577.668,334.688 583.306,337.859C599.738,347.098 605.649,358.217 607.216,360.675C612.736,369.333 615.849,381.911 616.075,387.526C616.477,397.529 615.915,400.374 614.141,407.415C611.855,416.492 606.749,424.561 603.475,428.485Z" style="fill:rgb(11,107,90);"/>
    </g>
    <g transform="matrix(1.5625,0,0,1.5625,-262,-480)">
        <path d="M379.122,495.541C377.803,480.39 383.172,471.262 384.6,468.558C391.12,456.214 402.227,450.253 414.335,440.297C422.438,433.635 422.388,433.603 423.099,433.034C431.416,426.396 431.413,426.417 439.662,419.7C446.832,413.862 446.922,414.009 453.592,408.619C474.508,391.716 474.56,391.818 476.34,390.305C487.672,380.666 507.107,365.741 516.613,357.635C532.002,344.513 541.978,341.547 558.515,342.185C567.367,342.527 578.373,348.278 579.319,348.834C584.855,352.083 584.917,352.029 589.463,356.538C603.495,370.455 603.86,383.756 604.505,388.499C605.937,399.025 600.506,412.27 599.256,414.357C593.238,424.401 586.438,428.614 576.106,437.02C564.397,446.546 564.386,446.503 563.37,447.333C560.454,449.713 549.369,459.097 549.253,459.192C545.083,462.623 544.926,462.388 540.76,465.814C521.096,481.986 520.93,481.759 519.248,483.197C506.787,493.85 506.383,493.334 493.807,503.868C482.778,513.107 482.676,512.958 481.721,513.764C468.911,524.574 463.021,529.03 461.347,530.296C444.877,542.758 429.541,540.716 422.455,539.81C413.871,538.711 382.811,529.129 379.122,495.541Z" style="fill:rgb(243,253,248);"/>
    </g>
    <g transform="matrix(1.5625,0,0,1.5625,-262,-480)">
        <path d="M477.442,403.433C482.408,399.632 489.837,392.457 495.522,390.561C507.78,386.474 516.339,397.189 519.437,400.554C527.12,408.9 527.186,408.797 534.928,417.104C544.497,427.37 546.391,430.564 545.842,438.543C545.158,448.489 538.47,452.678 536.434,454.419C531.049,459.024 527.3,461.625 526.41,462.388C520.469,467.472 520.326,467.275 514.361,472.333C512.536,473.88 500.991,483.241 498.449,485.442C480.84,500.689 466.897,482.21 463.429,478.566C445.315,459.532 443.773,457.677 442.179,455.759C441.963,455.499 433.921,447.835 439.959,435.746C442.414,430.83 443.346,431.532 477.442,403.433Z" style="fill:rgb(255,223,155);"/>
    </g>
    <g transform="matrix(1.5625,0,0,1.5625,-262,-480)">
        <path d="M603.475,428.485C603.881,428.673 604.095,429.16 604.5,429.348C605.07,429.611 605.135,429.036 610.543,429.919C610.522,429.996 610.38,429.995 610.358,430.072C610.102,430.975 610.256,430.979 609.986,431.885C609.786,432.561 609.748,432.546 605.044,439.184C603.618,441.195 602.96,441.024 603.249,442.663C603.393,443.482 606.173,443.166 607.501,443.163C610.992,443.155 639.089,442.86 640.577,443.246C643.336,443.96 642.861,445.046 642.858,463.504C642.856,480.001 643.636,481.899 641.294,483.147C638.818,484.467 613.089,483.32 601.525,483.84C595.571,484.108 594.228,489.073 594.086,490.447C593.857,492.666 594.491,518.889 594.381,524.498C594.255,530.909 591.248,530.347 583.499,530.328C555.241,530.259 554.984,530.347 553.829,529.185C551.872,527.217 552.869,514.802 552.417,501.504C552.175,494.389 544.156,494.109 539.863,496.989C538.863,497.659 538.773,497.46 538.698,497.53C538.433,497.778 538.481,498.257 538.216,498.505C532.427,497.377 532.375,498.276 526.485,497.907C523.708,497.734 523.739,497.708 523.499,497.708C522.543,497.712 522.567,497.885 522.5,497.84C521.647,497.258 522.172,496.804 521.33,496.23C525.19,492.562 526.726,492.124 538.331,482.294C540.019,480.865 540.19,481.08 559.794,464.865C565.625,460.041 565.808,460.304 581.358,447.321C582.152,446.658 598.476,434.269 603.475,428.485Z" style="fill:rgb(178,231,205);"/>
    </g>
    <g transform="matrix(1.5625,0,0,1.5625,-262,-480)">
        <path d="M473.379,420.353C484.189,412.056 494.629,402.333 496.44,401.399C504.528,397.229 507.12,402.98 513.319,409.659C519.602,416.429 519.741,416.274 525.932,423.11C533.067,430.989 538.986,434.093 533.505,442.504C532.076,444.698 520.31,453.353 500.613,469.643C487.641,480.371 487.638,480.546 485.404,481.014C479.288,482.295 476.223,477.512 475.398,476.589C464.098,463.959 463.987,464.065 463.007,462.965C450.886,449.381 446.351,448.136 448.106,442.364C449.301,438.435 456.374,434.12 465.663,426.714C469.581,423.589 469.525,423.547 473.379,420.353Z" style="fill:rgb(253,254,253);"/>
    </g>
    <g transform="matrix(1.5625,0,0,1.5625,-262,-480)">
        <path d="M610.543,429.919C612.38,429.879 615.827,429.804 633.5,429.843C642.907,429.865 650.163,428.486 655.846,438.301C657.949,441.933 657.073,442.25 657.272,474.503C657.334,484.514 658.253,489.939 649.69,495.79C645.421,498.707 645,498.432 613.499,498.417C610.198,498.415 608.723,497.826 608.815,501.492C608.958,507.113 608.96,527.674 608.979,528.5C609.191,537.945 602.141,542.291 598.503,543.508C595.239,544.601 593.322,545.243 555.5,544.786C542.429,544.628 538.73,534.986 538.254,530.521C538.127,529.329 538.159,500.864 538.216,498.505C538.481,498.257 538.433,497.778 538.698,497.53C538.773,497.46 538.863,497.659 539.863,496.989C544.156,494.109 552.175,494.389 552.417,501.504C552.869,514.802 551.872,527.217 553.829,529.185C554.984,530.347 555.241,530.259 583.499,530.328C591.248,530.347 594.255,530.909 594.381,524.498C594.491,518.889 593.857,492.666 594.086,490.447C594.228,489.073 595.571,484.108 601.525,483.84C613.089,483.32 638.818,484.467 641.294,483.147C643.636,481.899 642.856,480.001 642.858,463.504C642.861,445.046 643.336,443.96 640.577,443.246C639.089,442.86 610.992,443.155 607.501,443.163C606.173,443.166 603.393,443.482 603.249,442.663C602.96,441.024 603.618,441.195 605.044,439.184C609.748,432.546 609.786,432.561 609.986,431.885C610.256,430.979 610.102,430.975 610.358,430.072C610.38,429.995 610.522,429.996 610.543,429.919Z" style="fill:rgb(11,107,90);"/>
    </g>
    <g transform="matrix(0.829876,0,0,0.829876,-209.329926,-310.992626)">
        <g transform="matrix(290.342528,0,0,290.342528,304.749251,1036.643448)">
            <path d="M0.375,-0.722C0.419,-0.722 0.455,-0.716 0.484,-0.703C0.512,-0.69 0.537,-0.674 0.559,-0.657C0.573,-0.647 0.583,-0.646 0.59,-0.653C0.597,-0.661 0.602,-0.679 0.604,-0.708L0.627,-0.708C0.626,-0.683 0.625,-0.653 0.624,-0.617C0.624,-0.582 0.623,-0.535 0.623,-0.476L0.6,-0.476C0.596,-0.505 0.591,-0.528 0.587,-0.546C0.583,-0.564 0.578,-0.579 0.572,-0.592C0.565,-0.605 0.557,-0.617 0.546,-0.63C0.526,-0.655 0.501,-0.674 0.471,-0.685C0.442,-0.697 0.41,-0.703 0.378,-0.703C0.344,-0.703 0.315,-0.694 0.288,-0.677C0.262,-0.661 0.24,-0.637 0.222,-0.606C0.203,-0.575 0.189,-0.538 0.179,-0.495C0.169,-0.452 0.164,-0.404 0.164,-0.352C0.164,-0.298 0.17,-0.249 0.18,-0.207C0.191,-0.164 0.206,-0.128 0.226,-0.098C0.246,-0.068 0.269,-0.046 0.297,-0.03C0.324,-0.014 0.354,-0.007 0.387,-0.007C0.415,-0.007 0.445,-0.012 0.476,-0.024C0.507,-0.035 0.532,-0.053 0.55,-0.078C0.566,-0.098 0.578,-0.119 0.584,-0.143C0.59,-0.167 0.596,-0.2 0.6,-0.242L0.623,-0.242C0.623,-0.181 0.624,-0.132 0.624,-0.094C0.625,-0.057 0.626,-0.026 0.627,-0L0.604,-0C0.602,-0.029 0.597,-0.047 0.591,-0.054C0.584,-0.061 0.574,-0.06 0.559,-0.051C0.535,-0.034 0.508,-0.018 0.481,-0.005C0.453,0.007 0.418,0.014 0.374,0.014C0.31,0.014 0.253,-0 0.205,-0.029C0.156,-0.058 0.118,-0.099 0.092,-0.153C0.065,-0.207 0.051,-0.272 0.051,-0.348C0.051,-0.423 0.065,-0.488 0.093,-0.544C0.121,-0.6 0.159,-0.644 0.208,-0.675C0.256,-0.706 0.312,-0.722 0.375,-0.722Z" style="fill:rgb(11,107,90);fill-rule:nonzero;"/>
        </g>
        <g transform="matrix(290.342528,0,0,290.342528,505.375938,1036.643448)">
            <path d="M0.145,-0.767C0.164,-0.767 0.18,-0.76 0.194,-0.747C0.207,-0.735 0.213,-0.719 0.213,-0.701C0.213,-0.682 0.207,-0.666 0.194,-0.654C0.18,-0.641 0.164,-0.634 0.145,-0.634C0.126,-0.634 0.11,-0.641 0.096,-0.654C0.083,-0.666 0.076,-0.682 0.076,-0.701C0.076,-0.719 0.083,-0.735 0.096,-0.747C0.11,-0.76 0.126,-0.767 0.145,-0.767ZM0.201,-0.526L0.201,-0.093C0.201,-0.065 0.207,-0.046 0.218,-0.036C0.23,-0.026 0.249,-0.021 0.275,-0.021L0.275,-0C0.264,-0.001 0.246,-0.002 0.223,-0.003C0.199,-0.004 0.176,-0.004 0.152,-0.004C0.129,-0.004 0.105,-0.004 0.082,-0.003C0.058,-0.002 0.04,-0.001 0.028,-0L0.028,-0.021C0.055,-0.021 0.074,-0.026 0.085,-0.036C0.097,-0.046 0.102,-0.065 0.102,-0.093L0.102,-0.406C0.102,-0.436 0.097,-0.459 0.087,-0.473C0.076,-0.487 0.057,-0.494 0.028,-0.494L0.028,-0.515C0.05,-0.513 0.07,-0.512 0.09,-0.512C0.111,-0.512 0.131,-0.514 0.149,-0.516C0.168,-0.518 0.186,-0.522 0.201,-0.526Z" style="fill:rgb(11,107,90);fill-rule:nonzero;"/>
        </g>
        <g transform="matrix(290.342528,0,0,290.342528,591.607669,1036.643448)">
            <path d="M0.28,-0.529C0.302,-0.529 0.323,-0.527 0.343,-0.521C0.364,-0.516 0.382,-0.508 0.397,-0.498C0.413,-0.488 0.425,-0.476 0.433,-0.462C0.442,-0.449 0.446,-0.434 0.446,-0.418C0.446,-0.399 0.44,-0.384 0.429,-0.374C0.419,-0.363 0.405,-0.358 0.388,-0.358C0.372,-0.358 0.358,-0.363 0.347,-0.372C0.335,-0.381 0.33,-0.395 0.33,-0.412C0.33,-0.428 0.334,-0.441 0.343,-0.452C0.353,-0.462 0.363,-0.468 0.376,-0.471C0.369,-0.482 0.358,-0.492 0.342,-0.499C0.326,-0.507 0.309,-0.51 0.291,-0.51C0.273,-0.51 0.256,-0.506 0.24,-0.497C0.223,-0.489 0.208,-0.475 0.195,-0.456C0.182,-0.437 0.171,-0.412 0.163,-0.381C0.154,-0.35 0.15,-0.312 0.15,-0.267C0.15,-0.209 0.157,-0.164 0.17,-0.13C0.184,-0.096 0.201,-0.072 0.222,-0.057C0.244,-0.043 0.267,-0.036 0.292,-0.036C0.309,-0.036 0.326,-0.039 0.344,-0.045C0.361,-0.051 0.378,-0.062 0.394,-0.076C0.41,-0.091 0.423,-0.11 0.435,-0.135L0.454,-0.128C0.447,-0.106 0.436,-0.084 0.42,-0.062C0.405,-0.04 0.385,-0.022 0.359,-0.007C0.335,0.007 0.304,0.014 0.267,0.014C0.226,0.014 0.188,0.004 0.154,-0.017C0.121,-0.038 0.094,-0.069 0.074,-0.108C0.054,-0.148 0.044,-0.196 0.044,-0.252C0.044,-0.307 0.054,-0.356 0.074,-0.398C0.094,-0.439 0.122,-0.471 0.158,-0.495C0.194,-0.518 0.234,-0.529 0.28,-0.529Z" style="fill:rgb(11,107,90);fill-rule:nonzero;"/>
        </g>
        <g transform="matrix(290.342528,0,0,290.342528,733.294823,1036.643448)">
            <path d="M0.17,0.007C0.142,0.007 0.118,0.002 0.098,-0.009C0.078,-0.019 0.063,-0.034 0.053,-0.053C0.042,-0.071 0.037,-0.093 0.037,-0.117C0.037,-0.146 0.044,-0.17 0.058,-0.189C0.071,-0.207 0.089,-0.222 0.11,-0.234C0.131,-0.245 0.153,-0.254 0.177,-0.262C0.201,-0.27 0.223,-0.277 0.244,-0.284C0.265,-0.291 0.283,-0.299 0.296,-0.309C0.31,-0.318 0.317,-0.33 0.317,-0.346L0.317,-0.41C0.317,-0.437 0.313,-0.457 0.305,-0.471C0.297,-0.486 0.286,-0.496 0.273,-0.501C0.259,-0.507 0.244,-0.509 0.226,-0.509C0.21,-0.509 0.193,-0.507 0.175,-0.503C0.157,-0.498 0.142,-0.489 0.131,-0.475C0.145,-0.472 0.157,-0.465 0.166,-0.454C0.176,-0.442 0.18,-0.428 0.18,-0.412C0.18,-0.394 0.175,-0.38 0.163,-0.37C0.152,-0.36 0.137,-0.354 0.12,-0.354C0.1,-0.354 0.085,-0.361 0.075,-0.374C0.066,-0.386 0.061,-0.401 0.061,-0.417C0.061,-0.435 0.065,-0.449 0.074,-0.46C0.083,-0.471 0.094,-0.482 0.108,-0.491C0.124,-0.502 0.144,-0.511 0.169,-0.518C0.194,-0.526 0.222,-0.529 0.252,-0.529C0.28,-0.529 0.304,-0.526 0.324,-0.52C0.344,-0.514 0.361,-0.504 0.375,-0.491C0.392,-0.475 0.403,-0.456 0.408,-0.433C0.413,-0.41 0.416,-0.382 0.416,-0.35L0.416,-0.073C0.416,-0.057 0.418,-0.045 0.423,-0.037C0.428,-0.03 0.435,-0.027 0.445,-0.027C0.452,-0.027 0.459,-0.028 0.466,-0.032C0.472,-0.035 0.48,-0.04 0.489,-0.047L0.5,-0.03C0.486,-0.019 0.472,-0.01 0.458,-0.003C0.445,0.004 0.427,0.007 0.406,0.007C0.385,0.007 0.369,0.004 0.356,-0.003C0.343,-0.01 0.333,-0.02 0.327,-0.032C0.32,-0.045 0.317,-0.061 0.317,-0.081C0.3,-0.052 0.278,-0.03 0.254,-0.015C0.229,-0 0.201,0.007 0.17,0.007ZM0.211,-0.037C0.232,-0.037 0.251,-0.043 0.269,-0.054C0.286,-0.066 0.302,-0.084 0.317,-0.107L0.317,-0.305C0.309,-0.294 0.298,-0.284 0.283,-0.276C0.269,-0.269 0.253,-0.261 0.236,-0.253C0.219,-0.245 0.203,-0.236 0.188,-0.226C0.172,-0.216 0.159,-0.202 0.149,-0.186C0.139,-0.17 0.134,-0.149 0.134,-0.123C0.134,-0.097 0.141,-0.076 0.155,-0.06C0.169,-0.045 0.188,-0.037 0.211,-0.037Z" style="fill:rgb(11,107,90);fill-rule:nonzero;"/>
        </g>
        <g transform="matrix(290.342528,0,0,290.342528,878.75643,1036.643448)">
            <path d="M0.196,-0.681L0.196,-0.514L0.339,-0.514L0.339,-0.494L0.196,-0.494L0.196,-0.105C0.196,-0.075 0.202,-0.055 0.212,-0.043C0.223,-0.031 0.238,-0.025 0.257,-0.025C0.276,-0.025 0.292,-0.032 0.306,-0.047C0.32,-0.062 0.333,-0.088 0.343,-0.124L0.363,-0.118C0.355,-0.081 0.342,-0.05 0.322,-0.024C0.302,0.001 0.272,0.014 0.232,0.014C0.209,0.014 0.19,0.011 0.175,0.005C0.16,-0 0.147,-0.008 0.136,-0.019C0.121,-0.034 0.111,-0.053 0.105,-0.074C0.1,-0.095 0.097,-0.124 0.097,-0.159L0.097,-0.494L0.003,-0.494L0.003,-0.514L0.097,-0.514L0.097,-0.664C0.116,-0.665 0.133,-0.666 0.15,-0.669C0.167,-0.671 0.182,-0.675 0.196,-0.681Z" style="fill:rgb(11,107,90);fill-rule:nonzero;"/>
        </g>
        <g transform="matrix(290.342528,0,0,290.342528,981.537685,1036.643448)">
            <path d="M0.345,-0.529C0.363,-0.529 0.379,-0.526 0.393,-0.518C0.407,-0.51 0.417,-0.5 0.425,-0.488C0.432,-0.476 0.436,-0.463 0.436,-0.448C0.436,-0.43 0.43,-0.415 0.419,-0.401C0.408,-0.388 0.394,-0.382 0.375,-0.382C0.36,-0.382 0.346,-0.386 0.335,-0.396C0.324,-0.405 0.319,-0.419 0.319,-0.436C0.319,-0.449 0.322,-0.461 0.33,-0.471C0.337,-0.48 0.345,-0.488 0.354,-0.494C0.349,-0.5 0.342,-0.502 0.332,-0.502C0.313,-0.502 0.295,-0.496 0.279,-0.484C0.262,-0.472 0.248,-0.457 0.237,-0.439C0.226,-0.421 0.217,-0.402 0.211,-0.381C0.204,-0.361 0.201,-0.342 0.201,-0.324L0.201,-0.103C0.201,-0.07 0.21,-0.049 0.229,-0.038C0.247,-0.027 0.273,-0.021 0.305,-0.021L0.305,-0C0.29,-0.001 0.268,-0.002 0.24,-0.003C0.212,-0.004 0.182,-0.004 0.15,-0.004C0.127,-0.004 0.104,-0.004 0.081,-0.003C0.057,-0.002 0.04,-0.001 0.028,-0L0.028,-0.021C0.055,-0.021 0.074,-0.026 0.085,-0.036C0.097,-0.046 0.102,-0.065 0.102,-0.093L0.102,-0.406C0.102,-0.436 0.097,-0.459 0.087,-0.473C0.076,-0.487 0.057,-0.494 0.028,-0.494L0.028,-0.515C0.05,-0.513 0.07,-0.512 0.09,-0.512C0.111,-0.512 0.131,-0.514 0.149,-0.516C0.168,-0.518 0.186,-0.522 0.201,-0.526L0.201,-0.407C0.209,-0.426 0.219,-0.445 0.233,-0.464C0.246,-0.482 0.263,-0.498 0.282,-0.511C0.301,-0.523 0.322,-0.529 0.345,-0.529Z" style="fill:rgb(11,107,90);fill-rule:nonzero;"/>
        </g>
        <g transform="matrix(290.342528,0,0,290.342528,1111.90148,1036.643448)">
            <path d="M0.145,-0.767C0.164,-0.767 0.18,-0.76 0.194,-0.747C0.207,-0.735 0.213,-0.719 0.213,-0.701C0.213,-0.682 0.207,-0.666 0.194,-0.654C0.18,-0.641 0.164,-0.634 0.145,-0.634C0.126,-0.634 0.11,-0.641 0.096,-0.654C0.083,-0.666 0.076,-0.682 0.076,-0.701C0.076,-0.719 0.083,-0.735 0.096,-0.747C0.11,-0.76 0.126,-0.767 0.145,-0.767ZM0.201,-0.526L0.201,-0.093C0.201,-0.065 0.207,-0.046 0.218,-0.036C0.23,-0.026 0.249,-0.021 0.275,-0.021L0.275,-0C0.264,-0.001 0.246,-0.002 0.223,-0.003C0.199,-0.004 0.176,-0.004 0.152,-0.004C0.129,-0.004 0.105,-0.004 0.082,-0.003C0.058,-0.002 0.04,-0.001 0.028,-0L0.028,-0.021C0.055,-0.021 0.074,-0.026 0.085,-0.036C0.097,-0.046 0.102,-0.065 0.102,-0.093L0.102,-0.406C0.102,-0.436 0.097,-0.459 0.087,-0.473C0.076,-0.487 0.057,-0.494 0.028,-0.494L0.028,-0.515C0.05,-0.513 0.07,-0.512 0.09,-0.512C0.111,-0.512 0.131,-0.514 0.149,-0.516C0.168,-0.518 0.186,-0.522 0.201,-0.526Z" style="fill:rgb(11,107,90);fill-rule:nonzero;"/>
        </g>
        <g transform="matrix(290.342528,0,0,290.342528,1198.133211,1036.643448)">
            <path d="M0.44,-0.52L0.157,-0.015L0.258,-0.015C0.284,-0.015 0.308,-0.02 0.328,-0.031C0.348,-0.042 0.364,-0.059 0.377,-0.083C0.39,-0.107 0.397,-0.139 0.4,-0.179L0.423,-0.179C0.423,-0.135 0.423,-0.099 0.424,-0.069C0.424,-0.039 0.425,-0.015 0.427,0.004C0.397,0.003 0.367,0.002 0.335,0.001C0.303,0 0.271,-0 0.24,-0C0.206,-0 0.172,0.001 0.137,0.002C0.102,0.003 0.069,0.004 0.037,0.005L0.319,-0.5L0.218,-0.5C0.189,-0.5 0.165,-0.495 0.145,-0.484C0.125,-0.473 0.109,-0.456 0.098,-0.432C0.087,-0.408 0.08,-0.376 0.076,-0.336L0.054,-0.336C0.054,-0.381 0.053,-0.417 0.053,-0.447C0.052,-0.476 0.051,-0.5 0.05,-0.519C0.079,-0.518 0.11,-0.517 0.142,-0.516C0.174,-0.516 0.205,-0.515 0.237,-0.515C0.27,-0.515 0.305,-0.516 0.339,-0.517C0.374,-0.518 0.408,-0.519 0.44,-0.52Z" style="fill:rgb(11,107,90);fill-rule:nonzero;"/>
        </g>
        <g transform="matrix(290.342528,0,0,290.342528,1336.336255,1036.643448)">
            <path d="M0.17,0.007C0.142,0.007 0.118,0.002 0.098,-0.009C0.078,-0.019 0.063,-0.034 0.053,-0.053C0.042,-0.071 0.037,-0.093 0.037,-0.117C0.037,-0.146 0.044,-0.17 0.058,-0.189C0.071,-0.207 0.089,-0.222 0.11,-0.234C0.131,-0.245 0.153,-0.254 0.177,-0.262C0.201,-0.27 0.223,-0.277 0.244,-0.284C0.265,-0.291 0.283,-0.299 0.296,-0.309C0.31,-0.318 0.317,-0.33 0.317,-0.346L0.317,-0.41C0.317,-0.437 0.313,-0.457 0.305,-0.471C0.297,-0.486 0.286,-0.496 0.273,-0.501C0.259,-0.507 0.244,-0.509 0.226,-0.509C0.21,-0.509 0.193,-0.507 0.175,-0.503C0.157,-0.498 0.142,-0.489 0.131,-0.475C0.145,-0.472 0.157,-0.465 0.166,-0.454C0.176,-0.442 0.18,-0.428 0.18,-0.412C0.18,-0.394 0.175,-0.38 0.163,-0.37C0.152,-0.36 0.137,-0.354 0.12,-0.354C0.1,-0.354 0.085,-0.361 0.075,-0.374C0.066,-0.386 0.061,-0.401 0.061,-0.417C0.061,-0.435 0.065,-0.449 0.074,-0.46C0.083,-0.471 0.094,-0.482 0.108,-0.491C0.124,-0.502 0.144,-0.511 0.169,-0.518C0.194,-0.526 0.222,-0.529 0.252,-0.529C0.28,-0.529 0.304,-0.526 0.324,-0.52C0.344,-0.514 0.361,-0.504 0.375,-0.491C0.392,-0.475 0.403,-0.456 0.408,-0.433C0.413,-0.41 0.416,-0.382 0.416,-0.35L0.416,-0.073C0.416,-0.057 0.418,-0.045 0.423,-0.037C0.428,-0.03 0.435,-0.027 0.445,-0.027C0.452,-0.027 0.459,-0.028 0.466,-0.032C0.472,-0.035 0.48,-0.04 0.489,-0.047L0.5,-0.03C0.486,-0.019 0.472,-0.01 0.458,-0.003C0.445,0.004 0.427,0.007 0.406,0.007C0.385,0.007 0.369,0.004 0.356,-0.003C0.343,-0.01 0.333,-0.02 0.327,-0.032C0.32,-0.045 0.317,-0.061 0.317,-0.081C0.3,-0.052 0.278,-0.03 0.254,-0.015C0.229,-0 0.201,0.007 0.17,0.007ZM0.211,-0.037C0.232,-0.037 0.251,-0.043 0.269,-0.054C0.286,-0.066 0.302,-0.084 0.317,-0.107L0.317,-0.305C0.309,-0.294 0.298,-0.284 0.283,-0.276C0.269,-0.269 0.253,-0.261 0.236,-0.253C0.219,-0.245 0.203,-0.236 0.188,-0.226C0.172,-0.216 0.159,-0.202 0.149,-0.186C0.139,-0.17 0.134,-0.149 0.134,-0.123C0.134,-0.097 0.141,-0.076 0.155,-0.06C0.169,-0.045 0.188,-0.037 0.211,-0.037Z" style="fill:rgb(11,107,90);fill-rule:nonzero;"/>
        </g>
        <g transform="matrix(290.342528,0,0,290.342528,1481.797861,1036.643448)">
        </g>
    </g>
    <g transform="matrix(1.5625,0,0,1.5625,-262,-480)">
        <path d="M432.675,517.291C431.559,515.934 431.324,516.088 430.781,514.421C430.309,512.968 430.841,511.917 430.939,511.725C433.074,507.511 439.376,506.095 441.015,512.616C441.685,515.28 438.812,518.185 436.509,518.557C434.424,518.894 434.495,518.374 432.675,517.291Z" style="fill:rgb(131,201,173);"/>
    </g>
    <g transform="matrix(1.5625,0,0,1.5625,-262,-480)">
        <path d="M424.182,500.14C423.846,500.379 421.834,502.42 419.458,501.611C419.041,501.469 413.808,498.59 417.48,493.482C419.106,491.221 424.222,490.134 425.874,494.35C427.177,497.676 424.836,499.373 424.182,500.14Z" style="fill:rgb(126,204,175);"/>
    </g>
    <g transform="matrix(1.5625,0,0,1.5625,-262,-480)">
        <path d="M423.553,463.906C425.059,464.122 425.107,463.903 426.469,464.556C431.838,467.129 427.94,474.992 423.565,474.11C422.128,473.82 416.924,470.691 419.685,466.627C421.056,464.61 421.256,464.781 423.553,463.906Z" style="fill:rgb(118,199,175);"/>
    </g>
    <g transform="matrix(1.5625,0,0,1.5625,-262,-480)">
        <path d="M547.823,397.277C547.095,395.694 545.771,394.405 549.396,391.366C554.795,386.839 559.983,394.666 555.599,398.608C551.795,402.028 549.777,399.747 547.823,397.277Z" style="fill:rgb(113,187,165);"/>
    </g>
    <g transform="matrix(1.5625,0,0,1.5625,-262,-480)">
        <path d="M440.543,480.946C440.879,480.993 441.221,480.982 441.557,481.03C446.988,481.8 447.601,489.06 442.354,491.051C439.338,492.195 434.036,487.68 436.75,483.652C438.508,481.044 440.326,481.025 440.543,480.946Z" style="fill:rgb(132,194,167);"/>
    </g>
    <g transform="matrix(1.5625,0,0,1.5625,-262,-480)">
        <path d="M458.545,507.589C458.467,507.606 455.787,508.908 453.411,506.6C448.764,502.086 454.076,497.199 457.603,498.123C461.047,499.025 463.632,503.82 459.277,507.171C459.054,507.342 458.767,507.418 458.545,507.589Z" style="fill:rgb(129,205,180);"/>
    </g>
    <g transform="matrix(1.5625,0,0,1.5625,-262,-480)">
        <path d="M410.073,481.543C410.045,481.684 410.191,482.395 409.665,483.588C409.057,484.967 405.992,488.078 403.721,487.012C400.015,485.272 398.744,480.657 402.663,477.725C402.84,477.593 405.769,475.818 408.52,478.48C409.786,479.705 409.471,479.885 410.073,481.543Z" style="fill:rgb(128,204,180);"/>
    </g>
    <g transform="matrix(1.5625,0,0,1.5625,-262,-480)">
        <path d="M540.105,378.553C540.089,378.657 540.234,379.444 539.771,380.62C539.027,382.508 535.449,386.05 531.381,381.604C527.182,377.016 535.265,369.935 539.362,376.577C539.451,376.721 539.417,376.723 540.105,378.553Z" style="fill:rgb(115,200,170);"/>
    </g>
    <g transform="matrix(1.5625,0,0,1.5625,-262,-480)">
        <path d="M552.736,421.275C551.702,419.794 551.399,419.924 551.205,418.544C551.173,418.319 551.003,417.114 551.936,415.8C556.792,408.959 564.152,418.141 559.491,421.49C555.433,424.406 553.694,421.991 552.736,421.275Z" style="fill:rgb(110,199,175);"/>
    </g>
    <g transform="matrix(1.5625,0,0,1.5625,-262,-480)">
        <path d="M569.391,386.554C569.329,386.154 569.037,385.814 568.975,385.415C568.539,382.616 573.159,378.438 576.225,380.866C581.934,385.387 576.799,390.636 572.551,389.359C570.455,388.729 570.721,388.309 569.391,386.554Z" style="fill:rgb(115,198,169);"/>
    </g>
    <g transform="matrix(1.5625,0,0,1.5625,-262,-480)">
        <path d="M575.547,411.6C575.395,411.633 572.547,413.42 569.914,409.25C566.775,404.278 575.125,398.58 578.324,405.571C578.984,407.012 578.529,408.262 578.449,408.481C577.699,410.543 577.28,410.222 575.547,411.6Z" style="fill:rgb(129,195,169);"/>
    </g>
    <g transform="matrix(1.5625,0,0,1.5625,-262,-480)">
        <path d="M553.527,366.531C554.407,365.854 556.184,364.231 558.777,366.105C565.297,370.817 557.873,377.999 553.003,372.998C550.008,369.922 552.607,367.545 553.527,366.531Z" style="fill:rgb(113,206,177);"/>
    </g>
    <g transform="matrix(1.40894,0,0,1.40894,-908.278668,-909.429202)">
        <g transform="matrix(173.543239,0,0,173.543239,1359.415963,1032.666091)">
            <path d="M0.062,-0.37L0.295,-0.37L0.362,-0.606L0.398,-0.606L0.331,-0.37L0.563,-0.37L0.554,-0.34L0.322,-0.34L0.255,-0.105L0.219,-0.105L0.286,-0.34L0.053,-0.34L0.062,-0.37Z" style="fill:rgb(200,149,42);fill-rule:nonzero;"/>
        </g>
        <g transform="matrix(173.543239,0,0,173.543239,1460.591672,1032.666091)">
        </g>
    </g>
</svg>
